<svg height="480pt" viewBox="0 0 480 480" width="480pt" xmlns="http://www.w3.org/2000/svg"><g fill="#3f4f4f"><path d="m232 336h16v144h-16zm0 0"/><path d="m144 384h16v96h-16zm0 0"/><path d="m320 384h16v96h-16zm0 0"/></g><path d="m282.585938 329.5625c.082031-.101562.160156-.199219.238281-.300781 4.222656-5.222657 7.925781-11.214844 11.015625-17.800781.167968-.355469.316406-.730469.480468-1.089844 1.296876-2.855469 2.464844-5.832032 3.523438-8.894532.1875-.546874.390625-1.078124.570312-1.632812 1.109376-3.398438 2.074219-6.902344 2.867188-10.515625.109375-.507813.183594-1.035156.289062-1.546875.628907-3.070312 1.121094-6.214844 1.503907-9.414062.117187-.976563.234375-1.953126.324219-2.941407.355468-3.746093.601562-7.542969.601562-11.425781 0-2.828125-.117188-5.617188-.308594-8.375-.132812-1.875-.347656-3.714844-.570312-5.554688-.085938-.765624-.152344-1.539062-.253906-2.296874-.332032-2.378907-.734376-4.726563-1.203126-7.035157-.027343-.136719-.046874-.273437-.074218-.410156-.507813-2.464844-1.085938-4.890625-1.738282-7.269531-9.117187-33.3125-32.4375-57.058594-59.851562-57.058594s-50.734375 23.746094-59.851562 57.058594c-.652344 2.378906-1.230469 4.804687-1.738282 7.269531-.027344.136719-.050781.273437-.078125.410156-.464843 2.308594-.867187 4.65625-1.199219 7.035157-.101562.757812-.167968 1.535156-.253906 2.296874-.222656 1.839844-.4375 3.679688-.570312 5.554688-.191406 2.757812-.308594 5.546875-.308594 8.375 0 3.882812.246094 7.679688.601562 11.425781.089844.988281.207032 1.964844.324219 2.941407.382813 3.199218.878907 6.34375 1.503907 9.414062.105468.511719.179687 1.039062.292968 1.546875.789063 3.613281 1.753906 7.117187 2.863282 10.515625.179687.554688.386718 1.085938.574218 1.632812 1.054688 3.0625 2.222656 6.039063 3.519532 8.894532.164062.359375.316406.734375.480468 1.089844 3.089844 6.585937 6.792969 12.578124 11.015625 17.800781.078125.101562.160157.199219.238281.300781 4.328126 5.304688 9.179688 9.824219 14.4375 13.378906 8.503907 5.746094 18.035157 9.058594 28.148438 9.058594s19.644531-3.3125 28.148438-9.058594c5.261718-3.554687 10.109374-8.074218 14.4375-13.378906zm0 0" fill="#d85b55"/><path d="m299.851562 233.058594c.652344 2.378906 1.234376 4.796875 1.738282 7.269531.027344.136719.050781.273437.078125.410156.460937 2.3125.875 4.648438 1.199219 7.035157.105468.757812.164062 1.535156.253906 2.296874.214844 1.84375.441406 3.675782.570312 5.554688.199219 2.753906.308594 5.546875.308594 8.375 0 3.882812-.246094 7.675781-.601562 11.425781-.09375.988281-.207032 1.964844-.324219 2.941407-.382813 3.199218-.878907 6.339843-1.503907 9.414062-.105468.511719-.179687 1.039062-.292968 1.546875-.789063 3.617187-1.757813 7.113281-2.863282 10.515625-.179687.554688-.382812 1.085938-.574218 1.632812-1.050782 3.066407-2.222656 6.03125-3.519532 8.894532-.164062.359375-.3125.730468-.480468 1.089844-3.085938 6.601562-6.796875 12.566406-11.015625 17.800781-.078125.101562-.160157.199219-.238281.300781-4.328126 5.316406-9.175782 9.820312-14.4375 13.378906 9.117187 33.3125 32.4375 57.058594 59.851562 57.058594 35.347656 0 64-39.398438 64-88s-28.652344-88-64-88c-10.113281 0-19.644531 3.3125-28.148438 9.058594zm0 0" fill="#31cccc"/><path d="m197.414062 329.5625c-.082031-.101562-.160156-.199219-.238281-.300781-4.21875-5.234375-7.929687-11.199219-11.015625-17.800781-.167968-.359376-.316406-.730469-.480468-1.089844-1.296876-2.863282-2.46875-5.828125-3.523438-8.894532-.1875-.546874-.390625-1.078124-.570312-1.632812-1.105469-3.402344-2.074219-6.898438-2.867188-10.515625-.109375-.507813-.183594-1.035156-.289062-1.546875-.625-3.074219-1.121094-6.214844-1.503907-9.414062-.117187-.976563-.230469-1.953126-.324219-2.941407-.355468-3.75-.601562-7.542969-.601562-11.425781 0-2.828125.109375-5.621094.308594-8.375.128906-1.878906.355468-3.710938.570312-5.554688.089844-.761718.148438-1.539062.253906-2.296874.324219-2.386719.742188-4.722657 1.203126-7.035157.027343-.136719.046874-.273437.074218-.410156.503906-2.472656 1.085938-4.890625 1.738282-7.269531-8.503907-5.746094-18.035157-9.058594-28.148438-9.058594-35.347656 0-64 39.398438-64 88s28.652344 88 64 88c27.414062 0 50.734375-23.746094 59.851562-57.058594-5.265624-3.558594-10.109374-8.0625-14.4375-13.378906zm0 0" fill="#ffaf1c"/><path d="m64 104 48-96h-104zm0 0" fill="#31cccc"/><path d="m184 104 48-96h-104zm0 0" fill="#ffaf1c"/><path d="m304 104 48-96h-104zm0 0" fill="#31cccc"/><path d="m424 104 48-96h-104zm0 0" fill="#ffaf1c"/><path d="m466.34375 469.65625-24-24c-3.125-3.125-3.125-8.1875 0-11.3125l18.34375-18.34375-18.34375-18.34375c-3.125-3.125-3.125-8.1875 0-11.3125l18.34375-18.34375-18.34375-18.34375 11.3125-11.3125 24 24c3.125 3.125 3.125 8.1875 0 11.3125l-18.34375 18.34375 18.34375 18.34375c3.125 3.125 3.125 8.1875 0 11.3125l-18.34375 18.34375 18.34375 18.34375zm0 0" fill="#7ac174"/><path d="m26.34375 333.65625-24-24c-3.125-3.125-3.125-8.1875 0-11.3125l18.34375-18.34375-18.34375-18.34375c-3.125-3.125-3.125-8.1875 0-11.3125l18.34375-18.34375-18.34375-18.34375 11.3125-11.3125 24 24c3.125 3.125 3.125 8.1875 0 11.3125l-18.34375 18.34375 18.34375 18.34375c3.125 3.125 3.125 8.1875 0 11.3125l-18.34375 18.34375 18.34375 18.34375zm0 0" fill="#31cccc"/><path d="m378.34375 213.65625-24-24c-3.125-3.125-3.125-8.1875 0-11.3125l18.34375-18.34375-18.34375-18.34375c-3.125-3.125-3.125-8.1875 0-11.3125l18.34375-18.34375-18.34375-18.34375 11.3125-11.3125 24 24c3.125 3.125 3.125 8.1875 0 11.3125l-18.34375 18.34375 18.34375 18.34375c3.125 3.125 3.125 8.1875 0 11.3125l-18.34375 18.34375 18.34375 18.34375zm0 0" fill="#ffaf1c"/><path d="m0 0h480v16h-480zm0 0" fill="#3f4f4f"/></svg>